<svg width="120" height="113" viewBox="0 0 120 113" fill="none" xmlns="http://www.w3.org/2000/svg">
<path d="M102.85 58.3514C102.85 61.7965 102.444 65.1471 101.679 68.3585C101.604 68.6735 101.525 68.9865 101.444 69.2975L67.8336 75.3503C67.8336 75.3503 66.1029 81.3981 61.3366 81.3981C56.5694 81.3981 54.8306 75.6521 54.8306 75.6521L17.6864 66.6664C17.6366 66.4113 17.5888 66.1563 17.5441 65.8991C17.1173 63.4967 16.8917 61.0252 16.8836 58.5018C16.8012 34.7621 36.1274 15.3668 59.8671 15.3668C83.6059 15.3668 102.85 34.6117 102.85 58.3514Z" fill="#B7E0F7"/>
<path d="M75.5305 44.4399C74.9451 46.2254 74.3546 48.01 73.7601 49.7935C73.6971 49.7244 73.6229 49.6594 73.5366 49.5963C72.4095 48.7722 71.5345 47.6929 70.8973 46.4805C72.1687 44.9114 72.7286 42.8006 72.9603 40.8393C73.1026 39.6401 73.1433 38.4368 73.1626 37.2305C73.1819 36.0679 73.0284 35.0801 72.0427 34.3555C71.1646 33.7102 69.9919 34.2925 69.3181 34.9196C68.5406 35.6421 68.1646 36.8251 67.8638 37.8108C67.2571 39.8007 67.2683 41.9348 67.6494 43.9632C67.7815 44.6716 67.9797 45.3657 68.2358 46.0384C67.7388 46.4277 67.1738 46.7356 66.5518 46.9348C64.6372 47.5476 63.1829 46.4439 62.2968 44.8118C62.1514 44.5435 62.0132 44.259 61.8831 43.9632C62.0336 43.5598 62.1779 43.1563 62.311 42.7569C62.9624 40.8169 63.3222 38.7844 63.4848 36.7488C63.6199 35.0608 63.6687 33.0436 62.0447 32.0436C61.5224 31.7224 60.936 31.9643 60.6077 32.4206C58.2348 35.7123 58.3689 40.0781 59.6565 43.8138C59.2419 44.8067 58.7541 45.7681 58.2134 46.7C57.6179 47.7244 56.4828 49.3057 55.1047 49.1045C53.8222 48.9175 52.7968 47.3077 52.1586 46.3118C51.6911 45.5811 51.3253 44.8016 51.0356 43.9917C51.1992 43.5638 51.3507 43.1299 51.4889 42.6909C52.0366 40.9663 52.3425 39.1685 52.4858 37.3677C52.6047 35.8647 52.6535 33.7529 51.0092 33.0324C50.5306 32.823 49.8243 32.8454 49.5712 33.4094C48.1281 36.6228 47.8507 40.1472 48.7612 43.5517C48.7917 43.6665 48.8283 43.7813 48.8629 43.8962C48.0133 46.0598 46.7856 48.0872 45.3009 49.8758C44.7257 47.7 44.1363 45.5273 43.5336 43.3586C43.2023 42.1675 41.3212 42.5069 41.6322 43.7204C42.9666 48.9246 44.2623 54.14 45.5082 59.3676C46.4106 59.9703 47.2968 60.5922 48.1728 61.2325C47.435 58.1796 46.6718 55.1329 45.8822 52.0923C47.5092 50.4246 48.8639 48.5323 49.9238 46.4795C50.2409 47.075 50.5966 47.6472 50.9879 48.1888C52.0621 49.6756 53.4076 51.0689 55.3405 51.1726C57.1454 51.2701 58.6118 49.7528 59.5884 48.4337C60.058 47.8006 60.4685 47.1116 60.8334 46.3921C61.7175 47.8006 62.9929 48.9175 64.7287 49.1604C66.3272 49.3839 67.875 48.888 69.1839 48.011C69.9512 49.3159 70.9421 50.4917 72.0975 51.4581C72.4349 51.7406 72.7856 51.823 73.0955 51.7721C71.5447 56.3839 69.9583 60.9835 68.3303 65.5688C69.2795 64.8524 70.3099 64.1044 71.4146 63.3432C73.4888 57.3158 75.4654 51.2559 77.3272 45.1553C77.689 43.9744 75.9207 43.2478 75.5305 44.4399ZM61.2968 37.3616C61.2114 38.2905 61.0488 39.2133 60.8344 40.1228C60.6149 38.3332 60.7622 36.4978 61.4634 34.9765C61.5376 35.8169 61.3435 36.8525 61.2968 37.3616ZM69.937 43.8809C69.6575 42.6909 69.561 41.4571 69.6524 40.258C69.7185 39.385 69.9482 38.5273 70.2388 37.7051C70.3699 37.3322 70.5386 36.9826 70.749 36.6492C70.7652 36.6228 70.8394 36.5283 70.9146 36.445C70.9248 36.5019 70.9492 36.5822 70.9553 36.699C71.0681 38.825 70.8923 41.1208 70.2297 43.1482C70.1473 43.4012 70.0488 43.6441 69.937 43.8809Z" fill="white"/>
<path d="M62.0607 3.58535C62.0607 5.56502 61.0078 12.6839 59.709 12.6839C58.4103 12.6839 57.3574 5.56502 57.3574 3.58535C57.3574 1.60568 58.4103 0 59.709 0C61.0078 0 62.0607 1.60568 62.0607 3.58535Z" fill="#F5D342"/>
<path d="M99.9879 16.6056C98.4076 17.9634 93.4493 23.6849 94.3395 24.7215C95.2298 25.758 101.633 21.7174 103.212 20.3597C104.793 19.002 105.352 17.0609 104.461 16.0243C103.57 14.9867 101.567 15.2479 99.9879 16.6056Z" fill="#D9428E"/>
<path d="M116.335 54.1502C114.403 54.3961 107.325 54.2508 107.165 52.9835C107.004 51.7162 113.82 49.8067 115.752 49.5607C117.684 49.3158 119.381 50.1441 119.542 51.4113C119.702 52.6786 118.266 53.9052 116.335 54.1502Z" fill="#1BAAE2"/>
<path d="M20.4548 16.8658C21.9985 18.0752 26.905 23.2418 26.1123 24.254C25.3196 25.2662 19.1266 21.7408 17.5829 20.5325C16.0392 19.3231 15.4305 17.5223 16.2231 16.5101C17.0168 15.4979 18.9111 15.6565 20.4548 16.8658Z" fill="#7A519C"/>
<path d="M3.27469 54.1899C5.24013 54.4399 12.4373 54.2915 12.6009 53.0029C12.7645 51.7143 5.83261 49.7712 3.86717 49.5222C1.90173 49.2722 0.176128 50.1147 0.0125103 51.4043C-0.151107 52.6929 1.30925 53.9399 3.27469 54.1899Z" fill="#22A74B"/>
<path d="M25.0991 51.3147C25.0991 51.3147 25.1875 50.4194 25.9213 50.0271C26.656 49.6359 27.0473 50.3696 27.0473 50.3696C27.0473 50.3696 26.6144 47.3463 27.6133 47.0973C28.6123 46.8473 29.03 49.3127 29.03 49.3127C29.03 49.3127 30.528 46.8168 31.4853 47.1074C32.4426 47.3991 31.5849 50.2131 31.5849 50.2131C31.5849 50.2131 34.6174 51.5668 34.4893 53.8046L27.9202 53.1572L25.0991 51.3147Z" fill="#94C784"/>
<path d="M31.5034 52.1917C31.5034 52.1917 33.9333 50.9051 35.2991 51.2649C36.665 51.6247 36.1081 52.582 36.1081 52.582C36.1081 52.582 39.3459 50.4804 40.6253 51.5179C41.9058 52.5555 39.7737 54.6887 39.7737 54.6887C39.7737 54.6887 42.0735 54.3035 42.0948 55.1419C42.1162 55.9803 41.1223 57.0372 41.1223 57.0372L31.5034 52.1917Z" fill="#4BAD33"/>
<path d="M76.0104 61.2406C76.0104 61.2406 75.3275 58.5444 76.0175 57.8178C76.7076 57.0912 77.4403 58.579 77.4403 58.579C77.4403 58.579 77.4179 56.1146 78.3701 55.6115C79.3214 55.1095 79.8701 56.5099 79.8701 56.5099C79.8701 56.5099 80.1527 54.951 81.0358 54.7528C81.9179 54.5546 81.8518 55.6471 81.8518 55.6471C81.8518 55.6471 82.3163 54.9337 82.9992 54.9276C83.6821 54.9215 83.2187 56.4144 83.2187 56.4144L76.0104 61.2406Z" fill="#94C784"/>
<path d="M81.5086 58.266C81.5086 58.266 80.4731 56.3564 81.5036 55.6329C82.5351 54.9093 83.2159 55.8046 83.2159 55.8046C83.2159 55.8046 84.535 52.0597 85.3155 51.6685C86.096 51.2762 86.0421 53.7426 86.0421 53.7426C86.0421 53.7426 86.9273 50.6796 87.6001 50.5048C88.2728 50.33 88.343 52.6248 88.343 52.6248C88.343 52.6248 89.4364 49.2843 90.5076 49.1979C91.5787 49.1116 91.846 50.3991 91.846 50.3991C91.846 50.3991 93.1214 45.4815 94.7179 45.6725C96.3145 45.8626 94.6885 53.1004 94.6885 53.1004L81.5086 58.266Z" fill="#4BAD33"/>
<path d="M83.0384 55.5708C83.0384 55.5708 83.6512 56.1399 83.8372 55.9865C84.0232 55.833 83.5963 55.396 83.5963 55.396C83.5963 55.396 84.4937 55.2212 84.5038 55.1003C84.515 54.9804 83.5963 55.144 83.5963 55.144C83.5963 55.144 83.9795 54.6084 83.8372 54.5099C83.6949 54.4113 83.2132 54.958 83.2132 54.958C83.2132 54.958 83.2356 54.1481 83.0384 54.1481C82.8413 54.1481 82.8524 54.958 82.8524 54.958C82.8524 54.958 82.141 54.6521 82.0323 54.8483C81.9226 55.0454 82.6451 55.209 82.6451 55.209C82.6451 55.209 81.7589 55.4936 81.9124 55.6247C82.0658 55.7558 82.6675 55.4499 82.6675 55.4499C82.6675 55.4499 82.449 56.0403 82.6563 56.0627C82.8636 56.0851 83.0384 55.5708 83.0384 55.5708Z" fill="#7A519C"/>
<path d="M88.5023 52.0821C88.5023 52.0821 89.1151 52.6512 89.301 52.4977C89.487 52.3443 89.0602 51.9073 89.0602 51.9073C89.0602 51.9073 89.9575 51.7325 89.9677 51.6115C89.9789 51.4916 89.0602 51.6552 89.0602 51.6552C89.0602 51.6552 89.4433 51.1197 89.301 51.0211C89.1588 50.9225 88.6771 51.4693 88.6771 51.4693C88.6771 51.4693 88.6994 50.6593 88.5023 50.6593C88.3051 50.6593 88.3163 51.4693 88.3163 51.4693C88.3163 51.4693 87.6049 51.1634 87.4962 51.3595C87.3864 51.5567 88.109 51.7203 88.109 51.7203C88.109 51.7203 87.2228 52.0048 87.3763 52.1359C87.5297 52.267 88.1313 51.9611 88.1313 51.9611C88.1313 51.9611 87.9128 52.5516 88.1202 52.5739C88.3265 52.5963 88.5023 52.0821 88.5023 52.0821Z" fill="#F5D342"/>
<path d="M34.5745 52.3636C34.5745 52.3636 35.1873 52.9327 35.3733 52.7792C35.5593 52.6258 35.1325 52.1888 35.1325 52.1888C35.1325 52.1888 36.0298 52.014 36.04 51.893C36.0512 51.7731 35.1325 51.9367 35.1325 51.9367C35.1325 51.9367 35.5156 51.4012 35.3733 51.3026C35.231 51.204 34.7493 51.7508 34.7493 51.7508C34.7493 51.7508 34.7717 50.9408 34.5745 50.9408C34.3774 50.9408 34.3886 51.7508 34.3886 51.7508C34.3886 51.7508 33.6772 51.4449 33.5684 51.641C33.4597 51.8371 34.1812 52.0018 34.1812 52.0018C34.1812 52.0018 33.2951 52.2863 33.4485 52.4174C33.602 52.5485 34.2036 52.2426 34.2036 52.2426C34.2036 52.2426 33.9851 52.8331 34.1924 52.8554C34.3997 52.8778 34.5745 52.3636 34.5745 52.3636Z" fill="#F5D342"/>
<path d="M40.0799 54.5119C40.0799 54.5119 40.7811 55.1633 40.9945 54.9875C41.2069 54.8117 40.7191 54.3117 40.7191 54.3117C40.7191 54.3117 41.7455 54.1115 41.7587 53.9733C41.7719 53.835 40.7191 54.0231 40.7191 54.0231C40.7191 54.0231 41.1571 53.4092 40.9945 53.2964C40.8319 53.1836 40.2811 53.8096 40.2811 53.8096C40.2811 53.8096 40.3065 52.8828 40.0809 52.8828C39.8553 52.8828 39.8685 53.8096 39.8685 53.8096C39.8685 53.8096 39.0545 53.459 38.9295 53.6846C38.8045 53.9102 39.6307 54.0983 39.6307 54.0983C39.6307 54.0983 38.6165 54.4235 38.7912 54.5739C38.966 54.7243 39.6551 54.3737 39.6551 54.3737C39.6551 54.3737 39.4051 55.0495 39.6429 55.0749C39.8797 55.1013 40.0799 54.5119 40.0799 54.5119Z" fill="#7A519C"/>
<path d="M28.8675 48.2642C28.8675 48.2642 28.5545 47.0985 28.1581 47.3201C27.7618 47.5416 28.7364 48.7581 28.7364 48.7581C28.7364 48.7581 27.8045 48.4613 27.6622 48.8028C27.5199 49.1443 28.71 49.1565 28.71 49.1565C28.71 49.1565 28.5545 49.9725 28.7679 50.0467C28.9813 50.1209 29.1734 49.1097 29.1734 49.1097C29.1734 49.1097 29.5443 49.9369 29.8329 49.7377C30.1215 49.5386 29.5352 48.7571 29.5352 48.7571C29.5352 48.7571 30.8746 48.4044 30.7476 48.0813C30.6205 47.7581 29.5311 48.4024 29.5311 48.4024C29.5311 48.4024 29.8909 47.0193 29.6175 46.8851C29.3451 46.7489 28.8675 48.2642 28.8675 48.2642Z" fill="#D9428E"/>
<path d="M91.5133 48.4826C91.5133 48.4826 91.1159 47.0029 90.6129 47.2834C90.1098 47.5649 91.3466 49.1086 91.3466 49.1086C91.3466 49.1086 90.1637 48.7315 89.9828 49.1645C89.8019 49.5984 91.3131 49.6126 91.3131 49.6126C91.3131 49.6126 91.1149 50.6482 91.3863 50.7427C91.6576 50.8372 91.9005 49.5537 91.9005 49.5537C91.9005 49.5537 92.372 50.6035 92.7379 50.3504C93.1037 50.0974 92.3598 49.1055 92.3598 49.1055C92.3598 49.1055 94.06 48.6574 93.8984 48.2468C93.7369 47.8362 92.3547 48.6543 92.3547 48.6543C92.3547 48.6543 92.8111 46.8992 92.4645 46.7285C92.119 46.5588 91.5133 48.4826 91.5133 48.4826Z" fill="#D9428E"/>
<path d="M101.715 69.2344L101.368 69.2974L67.7571 75.3502C67.7571 75.3502 66.0264 81.398 61.2602 81.398C56.4929 81.398 54.7541 75.652 54.7541 75.652L17.61 66.6663L17.2573 66.5809L17.4667 65.899L18.4667 62.649L56.4015 73.46C56.4015 73.46 57.3242 78.9945 60.9533 79.0545C65.564 79.1307 66.2785 73.6114 66.2785 73.6114L101.248 65.5982L101.604 68.3584L101.715 69.2344Z" fill="#2872B9"/>
<path d="M99.5592 65.2537L68.4343 72.4122L65.8693 73.0016L65.539 73.0779C65.539 73.0779 65.0858 78.1429 61.2342 78.1429C57.3825 78.1429 57.222 73.1764 57.222 73.1764L50.7078 71.1704L48.282 70.4234L19.3481 61.5119L19.7384 60.2365C27.4304 62.1846 40.3288 66.2842 47.9049 68.7446C48.7962 69.0342 49.6133 69.3004 50.3399 69.5382C52.5198 70.2517 53.8826 70.7059 53.9669 70.7344C53.8958 70.6958 52.6092 69.9986 50.1905 68.8889C49.4578 68.5515 48.6224 68.1785 47.6844 67.773C42.0483 65.3381 32.7383 61.7832 20.2455 58.582L20.5199 57.6867C31.6581 60.0017 41.7901 63.896 47.3399 66.2507C48.3226 66.6673 49.1621 67.0372 49.8379 67.3401C51.0462 67.8817 51.7311 68.2141 51.7789 68.2374C51.157 67.7639 50.4679 67.2944 49.721 66.8309C48.9181 66.332 48.0513 65.8401 47.1346 65.3584C38.0818 60.5942 24.2617 56.7263 21.0778 55.8666L21.6164 54.1105C32.1784 56.5434 45.2993 62.5484 45.5025 62.6419C36.5706 56.1958 24.718 52.9113 22.1825 52.2588L22.8898 49.9509C32.4477 51.8889 39.468 55.1785 45.7291 59.3665C46.6316 59.9692 47.5177 60.5911 48.3938 61.2314C52.7149 64.3848 56.783 67.959 61.2342 71.7913C61.2342 71.7913 63.9313 69.0555 68.5522 65.5698C69.5014 64.8533 70.5319 64.1053 71.6366 63.3442C78.1538 58.8462 87.2656 53.8412 97.5958 51.8595L97.8336 53.4784C95.1385 54.0088 85.4627 56.3432 75.0674 64.0799C75.2636 63.9702 87.8855 56.8879 98.0724 55.1074L98.233 56.2029C95.9698 56.5596 84.7839 58.7222 71.287 68.2385C71.5238 68.0982 86.7107 59.1409 98.4739 57.8564L98.7493 59.7375C95.9495 59.9499 85.919 61.2812 69.4577 69.5586C69.0939 69.7415 68.725 69.9285 68.3551 70.1195C68.4404 70.083 68.8083 69.9275 69.414 69.6826C73.3327 68.0962 87.2086 62.7578 99.0409 61.7243L99.2066 62.8523L74.1569 69.2974L99.3753 64.0078L99.5592 65.2537Z" fill="white"/>
<path d="M76.6152 39.5862L92.3946 39.4632C92.3946 39.4632 91.6375 38.4917 90.7117 38.4917C90.7117 38.4917 90.8804 37.3972 89.7859 37.1451C88.3459 36.8128 87.9343 38.3657 87.9343 38.3657C87.9343 38.3657 88.103 37.5242 87.5552 37.4398C87.5552 37.4398 89.1965 36.0933 88.8601 34.6624C88.5237 33.2315 85.5776 32.7691 84.5054 34.073C83.4323 35.3779 83.8957 37.0608 83.8957 37.0608C83.8957 37.0608 82.8398 35.4825 81.9181 36.135C80.9079 36.8504 81.8764 37.7762 81.8764 37.7762C81.8764 37.7762 80.2778 36.4714 79.0573 37.2295C77.8368 37.9866 78.7209 38.9968 78.7209 38.9968C78.7209 38.9968 77.036 38.7864 76.6152 39.5862Z" fill="white"/>
<path d="M43.0985 33.7417L30.5518 33.9246C30.5518 33.9246 31.1544 32.8717 31.8902 32.8717C31.8902 32.8717 31.756 32.0018 32.6259 31.8016C33.7713 31.5374 34.0985 32.7722 34.0985 32.7722C34.0985 32.7722 33.9643 32.1035 34.3993 32.0364C34.3993 32.0364 33.0944 30.9653 33.3617 29.8281C33.629 28.6909 35.9715 28.323 36.8241 29.3596C37.6777 30.3972 37.3088 31.7346 37.3088 31.7346C37.3088 31.7346 38.1483 30.4795 38.881 30.9988C39.6838 31.5679 38.9145 32.3037 38.9145 32.3037C38.9145 32.3037 40.1859 31.2661 41.1564 31.8687C42.1269 32.4713 41.4237 33.2742 41.4237 33.2742C41.4237 33.2742 42.7631 33.1055 43.0985 33.7417Z" fill="white"/>
<path d="M49.3984 69.3991C49.4269 69.3879 49.4767 69.3473 49.4574 69.4235C49.3374 69.8808 49.5122 70.2761 49.7114 70.6684C49.7877 70.8198 49.871 70.9702 49.8669 71.1481C49.8639 71.2985 49.7663 71.4011 49.6159 71.4123C49.4543 71.4235 49.2968 71.4021 49.1484 71.3361C48.7541 71.1623 48.4431 70.9021 48.2775 70.4916C48.1576 70.1958 47.9787 69.9357 47.7744 69.6938C47.6027 69.4906 47.6118 69.2985 47.8141 69.1267C48.1118 68.8737 48.4645 68.7273 48.8395 68.6288C48.9462 68.6003 49.0336 68.5302 49.119 68.4591C49.6352 68.0292 50.0478 67.5007 50.495 67.0058C50.5214 66.9774 50.5295 66.9519 50.5234 66.9113C50.4533 66.4032 50.3964 65.892 50.3151 65.3859C50.2816 65.1735 50.1942 64.9713 50.1372 64.7619C50.0458 64.4316 49.998 64.0942 49.998 63.7507C49.998 63.7253 49.998 63.7009 50 63.6755C50.0122 63.4763 50.0122 63.4774 49.808 63.4316C49.7145 63.4113 49.5905 63.4123 49.5407 63.3524C49.494 63.2975 49.5244 63.1755 49.5265 63.0831C49.5437 62.4011 49.5844 61.7213 49.6474 61.0414C49.685 60.6369 49.7348 60.2335 49.7856 59.831C49.8232 59.5353 49.8811 59.2416 49.937 58.9489C49.9482 58.889 49.935 58.8625 49.8872 58.8321C49.4431 58.5546 49.0031 58.2721 48.557 57.9977C48.4818 57.952 48.4696 57.9195 48.5173 57.8443C48.5976 57.7172 48.5925 57.7142 48.4584 57.6451C47.7094 57.263 47.0295 56.7741 46.3517 56.2813C46.1413 56.1278 45.9289 55.9774 45.7196 55.8219C45.6708 55.7853 45.621 55.7731 45.5621 55.7731C45.2836 55.7721 45.0052 55.7945 44.7267 55.7762C44.6515 55.7711 44.5417 55.7782 44.5377 55.6827C44.5336 55.5922 44.6393 55.579 44.7165 55.5648C44.7887 55.5516 44.8639 55.5485 44.934 55.517C44.9096 55.4703 44.871 55.4784 44.8375 55.4764C44.7125 55.4693 44.5875 55.4561 44.4625 55.4581C44.3761 55.4591 44.3476 55.4134 44.3395 55.3433C44.3314 55.2701 44.3832 55.2376 44.4432 55.2315C44.5743 55.2162 44.7064 55.2101 44.8375 55.2C44.8588 55.1979 44.8791 55.1969 44.9086 55.1939C44.8741 55.138 44.8161 55.1512 44.7734 55.139C44.6434 55.1014 44.5112 55.076 44.3801 55.0445C44.3304 55.0323 44.2867 55.018 44.2897 54.9489C44.2928 54.8819 44.3314 54.8534 44.3852 54.8372C44.5163 54.7985 44.6474 54.8311 44.7785 54.8463C44.8202 54.8514 44.8619 54.8575 44.9106 54.8443C44.8365 54.8097 44.7612 54.7772 44.6881 54.7396C44.6413 54.7152 44.5956 54.6857 44.5539 54.6522C44.5112 54.6176 44.4736 54.5719 44.5102 54.515C44.5458 54.4611 44.5936 54.4368 44.6657 54.4622C44.8954 54.5414 45.1098 54.6522 45.3182 54.7762C45.3791 54.8128 45.436 54.8554 45.5112 54.8778C45.5255 54.7894 45.4747 54.7193 45.4625 54.641C45.4482 54.5526 45.433 54.4652 45.4482 54.3758C45.4584 54.3189 45.4919 54.3077 45.5285 54.3463C45.7338 54.5618 45.9157 54.7914 45.8608 55.1166C45.8486 55.1888 45.8954 55.1939 45.932 55.2122C46.5021 55.4947 47.0722 55.7762 47.6423 56.0577C48.1047 56.2863 48.5661 56.515 49.0285 56.7426C49.0651 56.7609 49.1057 56.8148 49.1454 56.7335C49.1647 56.6949 49.2104 56.7345 49.2409 56.7477C49.7074 56.9469 50.1748 57.1451 50.6393 57.3483C50.7826 57.4113 50.9218 57.516 51.0254 57.3026C50.6352 57.1451 50.2815 56.9103 49.9757 56.6044C49.9452 56.5739 49.9248 56.58 49.8954 56.5983C49.5925 56.7884 49.1576 56.6512 49.0529 56.3046C49.0376 56.2538 49.0092 56.2609 48.9726 56.263C48.8466 56.2691 48.7236 56.2538 48.6057 56.2081C48.246 56.0709 48.182 55.7935 48.4482 55.5241C48.2744 55.4591 48.1332 55.3463 48.0092 55.2142C47.7399 54.9276 47.7033 54.6146 47.9015 54.2772C47.9391 54.2122 47.9289 54.1868 47.8751 54.1451C47.6251 53.95 47.4289 53.7122 47.3578 53.3951C47.2633 52.9744 47.3832 52.6014 47.6525 52.2792C48.0183 51.8412 48.4838 51.6187 49.0641 51.6776C49.1281 51.6837 49.1118 51.6451 49.119 51.6146C49.1992 51.2477 49.3771 50.9357 49.6687 50.6969C50.0763 50.3626 50.5366 50.2914 51.0346 50.453C51.3425 50.5526 51.6443 50.6685 51.9431 50.7904C52.0448 50.8321 52.1403 50.8372 52.2419 50.7955C52.3669 50.7437 52.496 50.704 52.6291 50.6766C53.0244 50.5973 53.3334 50.7406 53.5529 51.0658C53.8608 51.5231 53.9309 52.0231 53.7846 52.5557C53.6992 52.8656 53.75 52.9296 54.0691 52.949C54.3537 52.9652 54.5315 53.1532 54.5407 53.4408C54.5529 53.8189 54.4218 54.1593 54.2693 54.4947C54.2033 54.64 54.123 54.7772 54.0376 54.9134C54.4258 54.9987 54.6047 55.3158 54.4553 55.6441C54.3608 55.8524 54.1636 55.9561 53.9411 55.9063C53.8821 55.893 53.8649 55.9113 53.8405 55.9601C53.7013 56.2406 53.5458 56.513 53.3639 56.7691C53.2663 56.9063 53.1494 57.0272 53.0224 57.138C53.0132 57.1471 53.0041 57.1573 52.9939 57.1664C53.0153 57.1857 53.0305 57.1715 53.0447 57.1562C53.3263 57.0292 53.6067 56.9022 53.8893 56.7762C53.933 56.7569 53.9767 56.7091 54.0102 56.8006C54.0285 56.8514 54.0702 56.7955 54.0935 56.7813C54.5864 56.4743 55.0773 56.1644 55.5691 55.8554C55.9675 55.6054 56.3649 55.3544 56.7642 55.1054C56.813 55.075 56.8394 55.0516 56.8151 54.9825C56.7581 54.8209 56.81 54.6674 56.875 54.5181C56.9167 54.4225 56.9695 54.3351 57.0305 54.2508C57.0529 54.2203 57.0752 54.1756 57.1199 54.1847C57.1728 54.1959 57.1667 54.2518 57.1728 54.2904C57.1901 54.4052 57.1697 54.5181 57.1453 54.6298C57.1382 54.6613 57.1301 54.6918 57.1413 54.7284C57.2155 54.7091 57.2653 54.6563 57.3212 54.6146C57.5102 54.4733 57.7073 54.3463 57.9187 54.2426C57.9939 54.2061 58.059 54.202 58.1067 54.2731C58.1545 54.3453 58.0945 54.3941 58.0488 54.4357C57.9462 54.5282 57.8222 54.5902 57.7033 54.6664C57.8151 54.64 57.9268 54.6126 58.0397 54.5872C58.1138 54.5699 58.189 54.5709 58.2632 54.578C58.3222 54.5841 58.3628 54.6166 58.3689 54.6796C58.375 54.7396 58.3394 54.765 58.2866 54.7833C58.1098 54.8433 57.935 54.9073 57.7429 54.9744C57.876 54.9744 57.9919 54.9774 58.1067 54.9733C58.1646 54.9713 58.2205 54.9693 58.2764 54.9825C58.3364 54.9957 58.3598 55.0333 58.3567 55.0902C58.3537 55.1431 58.3384 55.1878 58.2754 55.1979C58.1382 55.2183 58.001 55.2406 57.8638 55.262C57.8354 55.266 57.809 55.2741 57.7856 55.2945C57.81 55.3351 57.8516 55.326 57.8882 55.329C57.9594 55.3351 58.0305 55.3392 58.1006 55.3504C58.1535 55.3585 58.2012 55.39 58.2033 55.4439C58.2053 55.4916 58.1545 55.5059 58.1138 55.5221C58.0163 55.5617 57.9126 55.5678 57.81 55.578C57.6108 55.5983 57.4116 55.6136 57.2124 55.6237C57.1403 55.6278 57.0854 55.6491 57.0315 55.6969C56.4177 56.2376 55.8242 56.8016 55.1758 57.3016C54.9553 57.4713 54.7307 57.6359 54.496 57.7853C54.436 57.8239 54.4258 57.8544 54.4543 57.9205C54.5315 58.1014 54.5254 58.0993 54.3486 58.1837C53.9452 58.3758 53.5448 58.5729 53.1423 58.766C53.0966 58.7884 53.0783 58.8138 53.0854 58.8646C53.1372 59.2426 53.1657 59.6237 53.2013 60.0028C53.2328 60.3402 53.2643 60.6766 53.3008 61.014C53.3476 61.453 53.4055 61.89 53.4604 62.328C53.4838 62.5089 53.5671 62.6268 53.6819 62.7467C53.7439 62.8117 53.8547 62.8635 53.7968 62.9946C53.7826 63.0261 53.8384 63.0353 53.8649 63.0485C54.3364 63.2873 54.8029 63.5353 55.2399 63.8351C55.81 64.2274 56.3059 64.706 56.809 65.1765C56.8496 65.2152 56.8638 65.2568 56.8435 65.3107C56.8283 65.3503 56.8283 65.3981 56.8049 65.4316C56.7023 65.58 56.7571 65.6786 56.8811 65.7863C57.0559 65.9387 57.2134 66.1105 57.376 66.2771C57.4462 66.3493 57.5285 66.4021 57.6118 66.458C57.7307 66.5363 57.8435 66.5312 57.9716 66.4926C58.2978 66.3961 58.5396 66.1898 58.7429 65.9276C58.8506 65.7893 58.9573 65.6511 59.065 65.5139C59.1169 65.4489 59.1799 65.3981 59.2551 65.3615C59.3933 65.2954 59.499 65.3178 59.5925 65.4377C59.6992 65.5729 59.7429 65.7335 59.7531 65.9001C59.7846 66.3696 59.6687 66.7883 59.3445 67.1461C59.1535 67.3574 59.0285 67.6145 58.9238 67.8778C58.812 68.1572 58.627 68.2273 58.3557 68.1023C58.0356 67.955 57.7734 67.7212 57.5203 67.4794C57.4675 67.4296 57.4797 67.3656 57.4858 67.3086C57.4949 67.2284 57.4634 67.1776 57.4055 67.1257C57.0508 66.8076 56.6575 66.5434 56.247 66.3046C56.1819 66.267 56.1494 66.2914 56.1169 66.3351C56.0701 66.3971 56.0244 66.3971 55.9533 66.3645C55.0925 65.9692 54.2378 65.5617 53.3689 65.1837C53.2561 65.1349 53.1393 65.0922 53.0132 65.083C52.812 65.0678 52.6992 65.1318 52.6108 65.3137C52.5234 65.4926 52.5051 65.6887 52.4624 65.8798C52.3649 66.3208 52.2988 66.768 52.1657 67.2009C52.0854 67.4611 51.9533 67.6908 51.7683 67.8889C51.4126 68.2721 51.0122 68.6074 50.6342 68.9662C50.5956 69.0027 50.5681 68.9885 50.5316 68.9682C50.4167 68.9032 50.2998 68.8422 50.187 68.7751C50.1383 68.7456 50.0996 68.7456 50.0519 68.7761C49.8872 68.8818 49.7185 68.9814 49.5529 69.0871C49.4452 69.1562 49.437 69.2853 49.3811 69.3859C49.3811 69.395 49.3771 69.4093 49.3811 69.4123C49.3903 69.4194 49.3954 69.4093 49.3984 69.3991Z" fill="#2872B9"/>
<path d="M75.3844 55.8838C75.3346 55.8614 75.2828 55.8574 75.2279 55.8533C75.1009 55.8431 74.9759 55.8848 74.8184 55.8746C74.9576 55.8208 75.0724 55.7842 75.171 55.7171C75.2198 55.6836 75.2818 55.647 75.2503 55.5738C75.2157 55.4925 75.1477 55.4915 75.0704 55.5179C74.858 55.5911 74.6548 55.6846 74.4596 55.7944C74.4058 55.8248 74.354 55.8624 74.2727 55.8787C74.2889 55.8279 74.3021 55.7893 74.3153 55.7496C74.3499 55.644 74.3753 55.5372 74.3682 55.4255C74.3641 55.3594 74.3306 55.332 74.2818 55.3797C74.0846 55.5769 73.9088 55.7883 73.9505 56.0952C73.9566 56.1399 73.9413 56.15 73.9098 56.1643C73.6151 56.2974 73.3204 56.4295 73.0267 56.5657C72.9851 56.585 72.9658 56.5789 72.9414 56.5423C72.7666 56.2862 72.5491 56.0708 72.3143 55.8706C72.296 55.8553 72.2656 55.8228 72.2676 55.8208C72.3367 55.7374 72.2422 55.7313 72.2097 55.7059C72.108 55.6287 72.0023 55.5545 71.8936 55.4854C71.8367 55.4488 71.8316 55.4153 71.857 55.3553C71.9485 55.1348 72.0064 54.9051 72.0328 54.6653C72.1334 53.7364 71.669 52.958 70.8032 52.6104C70.2544 52.3909 69.6771 52.3421 69.0958 52.3157C68.8885 52.3066 68.6822 52.2984 68.4749 52.2923C68.3072 52.2883 68.1599 52.2151 68.0064 52.1643C67.7249 52.0464 67.4353 51.9539 67.1314 51.9163C66.8997 51.8879 66.668 51.9031 66.4678 52.0505C66.3164 52.1612 66.2188 52.3096 66.1487 52.4946C66.2188 52.4834 66.2188 52.4346 66.2351 52.4031C66.3601 52.1592 66.5501 52.0027 66.8255 51.9631C66.979 51.9407 67.1304 51.959 67.2818 51.9875C67.5105 52.0301 67.728 52.1125 67.9475 52.1846C67.9932 52.2039 68.0389 52.2222 68.0877 52.2425C68.0755 52.2517 68.0715 52.2588 68.0674 52.2588C67.6487 52.2385 67.2341 52.2598 66.8215 52.336C66.6213 52.3726 66.4221 52.4062 66.2422 52.5078C66.043 52.6206 65.9231 52.7893 65.8987 53.019C65.8814 53.1846 65.8997 53.3462 65.9688 53.4996C66.04 53.6582 66.1131 53.8167 66.1853 53.9753C66.232 54.0779 66.2585 54.1887 66.2361 54.2974C66.167 54.6318 66.0999 54.9661 65.9902 55.2903C65.8946 55.5708 65.8286 55.8584 65.8154 56.1561C65.7971 56.5738 65.8814 56.9681 66.1263 57.3563C65.9556 57.274 65.7961 57.2303 65.6802 57.1226C64.9007 56.398 64.1274 55.6653 63.3499 54.9377C63.3093 54.9001 63.3032 54.8757 63.3306 54.8238C63.4302 54.6379 63.3774 54.2009 63.2463 54.0474C63.2138 54.0098 63.1873 54.0098 63.165 54.0515C63.1497 54.0789 63.1396 54.1104 63.1304 54.1399C63.0918 54.2618 63.0938 54.3899 63.0867 54.5433C63.0186 54.4702 62.9678 54.4173 62.9201 54.3624C62.7778 54.1968 62.6213 54.0454 62.4485 53.9112C62.3875 53.8635 62.3306 53.8594 62.2768 53.9092C62.2209 53.962 62.2636 54.0139 62.293 54.0616C62.353 54.1572 62.4455 54.2212 62.5247 54.2984C62.5318 54.3096 62.5623 54.3127 62.544 54.332C62.5318 54.3442 62.5146 54.3309 62.5064 54.3147C62.4678 54.2974 62.4282 54.2812 62.3906 54.2639C62.291 54.2171 62.1934 54.1643 62.0796 54.1612C62.0207 54.1592 61.9729 54.1714 61.9546 54.2354C61.9363 54.2984 61.978 54.3228 62.0227 54.3503C62.1579 54.4316 62.291 54.5159 62.4384 54.6064C62.3804 54.6196 62.3469 54.6114 62.3123 54.6023C62.2229 54.5779 62.1345 54.5515 62.044 54.5322C61.9841 54.52 61.916 54.5149 61.8926 54.5921C61.8703 54.6673 61.8947 54.7202 61.978 54.7456C62.0766 54.7751 62.1721 54.8137 62.2676 54.8533C62.3032 54.8685 62.352 54.8706 62.3672 54.9224C62.3255 54.9448 62.289 54.9295 62.2514 54.9234C62.1843 54.9143 62.1172 54.9072 62.0501 54.9072C62.0095 54.9072 61.9699 54.9295 61.9587 54.9702C61.9485 55.0098 61.9851 55.0342 62.0146 55.0535C62.0796 55.0982 62.1528 55.1267 62.228 55.149C62.4384 55.2131 62.6487 55.2781 62.8601 55.3401C62.914 55.3563 62.9516 55.3838 62.9851 55.4305C63.1833 55.7049 63.3662 55.9905 63.539 56.2822C63.9424 56.9641 64.3997 57.6043 64.9841 58.145C65.0542 58.21 65.0603 58.2588 65.0003 58.3238C64.9495 58.3787 64.9648 58.4102 65.0247 58.4529C65.4658 58.7618 65.9018 59.0779 66.3418 59.3878C66.4089 59.4346 66.4292 59.4752 66.4078 59.5586C66.043 60.9712 65.7076 62.3899 65.5633 63.8451C65.545 64.0281 65.54 64.0281 65.7198 64.0809C65.7574 64.0921 65.794 64.1094 65.8327 64.1124C65.9434 64.1205 65.9719 64.1876 65.9841 64.2862C66.0339 64.7151 66.1081 65.1388 66.2127 65.5575C66.3885 66.2577 66.5593 66.9589 66.667 67.6744C66.6914 67.837 66.6944 67.9864 66.6111 68.1378C66.54 68.2679 66.4932 68.4102 66.4322 68.5463C66.2066 69.0494 66.0176 69.5677 65.7686 70.0606C65.7351 70.1276 65.6487 70.153 65.6426 70.2404C65.6385 70.3055 65.5999 70.3593 65.5664 70.4142C65.4444 70.6154 65.3266 70.8187 65.2849 71.0545C65.2696 71.1439 65.2798 71.2282 65.3743 71.273C65.4119 71.2912 65.417 71.3268 65.4292 71.3593C65.4841 71.5057 65.4851 71.6591 65.4942 71.8116C65.5176 72.1906 65.6396 72.5179 66.0044 72.7008C66.2574 72.8278 66.5288 72.8797 66.8113 72.8654C67.0674 72.8522 67.1568 72.6673 67.1396 72.4823C67.1365 72.4477 67.1243 72.4101 67.1314 72.3776C67.1711 72.2089 67.0959 72.0799 66.9932 71.9599C66.8936 71.8431 66.7971 71.7232 66.6883 71.6144C66.5003 71.4264 66.3774 71.211 66.354 70.9417C66.3459 70.8461 66.3265 70.7516 66.3052 70.6571C66.2595 70.461 66.3042 70.2862 66.417 70.1236C66.4343 70.0982 66.4455 70.0565 66.4871 70.0849C66.545 70.1236 66.5715 70.0921 66.606 70.0484C67.0928 69.4417 67.5786 68.8339 68.0704 68.2323C68.1395 68.148 68.1609 68.0575 68.166 67.96C68.1914 67.5179 68.2076 67.0748 68.1731 66.6317C68.166 66.5453 68.1721 66.4569 68.1721 66.3695C68.1772 66.3726 68.1863 66.3756 68.1873 66.3807C68.2747 66.9041 68.3631 67.4264 68.4485 67.9498C68.4749 68.1093 68.5135 68.2557 68.6406 68.3746C68.8367 68.5575 69.0379 68.7333 69.2371 68.9142C69.4068 69.0677 69.5684 69.2313 69.7452 69.3746C69.918 69.5148 70.0338 69.7049 70.2015 69.8532C70.358 69.9915 70.478 70.1957 70.4871 70.4335C70.4912 70.5473 70.5145 70.6591 70.5247 70.773C70.5399 70.9427 70.5542 71.1083 70.4678 71.2709C70.3651 71.465 70.2777 71.6683 70.1893 71.8705C70.1416 71.9803 70.0938 72.0921 70.1416 72.2181C70.17 72.2933 70.1863 72.3736 70.2086 72.4518C70.2564 72.6205 70.3733 72.7089 70.5481 72.6927C70.8194 72.6673 71.0481 72.5351 71.2615 72.3766C71.5908 72.1317 71.6721 71.7933 71.608 71.4061C71.5836 71.2618 71.5481 71.1205 71.5247 70.9772C71.5125 70.901 71.4993 70.8146 71.5593 70.7526C71.6223 70.6856 71.6111 70.6175 71.5857 70.5453C71.5531 70.4538 71.4942 70.3786 71.4363 70.3014C71.295 70.1114 71.0836 69.9874 70.9627 69.7801C70.9556 69.7669 70.9414 69.7506 70.9312 69.7587C70.8712 69.8065 70.8672 69.7415 70.8509 69.7171C70.7859 69.6195 70.7249 69.5189 70.6639 69.4183C70.6528 69.4 70.6192 69.3766 70.6477 69.3543C70.7046 69.3065 70.6619 69.2658 70.6446 69.2232C70.3967 68.6134 70.1487 68.0037 69.8987 67.3949C69.8763 67.3411 69.8672 67.2872 69.8672 67.2293C69.8662 66.9366 69.8682 66.6429 69.858 66.3502C69.8286 65.5474 69.7838 64.7445 69.7706 63.9396C69.7706 63.9092 69.7574 63.8675 69.794 63.8533C69.92 63.8055 69.9017 63.7069 69.8875 63.6073C69.8784 63.5403 69.8713 63.4722 69.8672 63.4051C69.8316 62.9214 69.792 62.4376 69.7727 61.9518C69.7412 61.1775 69.7087 60.4021 69.6751 59.6277C69.6731 59.585 69.6843 59.5637 69.7239 59.5474C70.1975 59.3533 70.67 59.1592 71.1426 58.962C71.1954 58.9397 71.2066 58.9519 71.2208 59.0027C71.2777 59.213 71.3966 59.3817 71.5755 59.5088C71.8489 59.7029 72.1629 59.774 72.5135 59.8258C72.3651 59.7039 72.2676 59.5819 72.2859 59.401C72.3021 59.2425 72.3804 59.1104 72.4658 58.9844C72.6151 58.7628 72.7777 58.5494 72.9241 58.3258C73.1111 58.0393 73.2503 57.7324 73.2351 57.3777C73.233 57.333 73.2554 57.3157 73.2859 57.2944C73.5552 57.1135 73.8245 56.9326 74.0928 56.7507C74.1304 56.7252 74.169 56.7171 74.2137 56.7202C74.3743 56.7324 74.5338 56.7446 74.6944 56.7517C74.8367 56.7588 74.98 56.775 75.1212 56.7374C75.1527 56.7293 75.1853 56.7191 75.1903 56.6805C75.1954 56.6439 75.172 56.6196 75.1466 56.6002C75.0968 56.5626 75.0349 56.5586 74.9759 56.5444C74.9241 56.5322 74.8631 56.5393 74.8184 56.4834C74.9586 56.4448 75.0948 56.4641 75.229 56.46C75.3031 56.458 75.3743 56.4631 75.3804 56.3584C75.3865 56.2608 75.3194 56.2527 75.2503 56.2395C75.1202 56.2141 74.984 56.2273 74.8245 56.1826C75.0226 56.1409 75.1913 56.1053 75.3611 56.0708C75.4017 56.0626 75.4373 56.0535 75.4434 56.0027C75.4464 55.9478 75.4342 55.9061 75.3844 55.8838ZM66.1883 53.8767C66.0664 53.6257 65.9617 53.3736 65.9576 53.0901C65.9536 52.8269 66.0715 52.6419 66.3042 52.5251C66.4028 52.4753 66.5064 52.4427 66.6446 52.4133C66.1497 52.8127 66.1751 53.3452 66.1883 53.8767ZM71.1751 58.7913C71.0582 58.5067 71.0786 58.5332 71.1751 58.5189V58.7913ZM71.6406 56.8157C71.5379 57.2415 71.5379 57.2415 71.1385 57.4224C71.0318 57.4712 70.9251 57.521 70.8184 57.5687C70.795 57.5799 70.7625 57.6013 70.7554 57.5535C70.7432 57.4742 70.6883 57.4976 70.6436 57.5078C70.0796 57.6378 69.5156 57.7689 68.9515 57.9C68.915 57.9082 68.8794 57.9183 68.8367 57.9112C68.9841 57.7872 69.1528 57.7354 69.3255 57.6826C70.0278 57.4661 70.603 57.0504 71.1029 56.522C71.2401 56.3767 71.3641 56.2202 71.4759 56.0627C71.7442 56.2669 71.7066 56.5372 71.6406 56.8157Z" fill="#2872B9"/>
<path d="M94.3333 90.4C94.2885 90.2638 94.2083 90.1622 94.0954 90.093C93.9816 90.025 93.8495 89.9914 93.6981 89.9914C93.5924 89.9914 93.5091 90.0067 93.4481 90.0361C93.2967 90.0819 93.1757 90.1652 93.0853 90.2861C92.9948 90.4071 92.9491 90.5432 92.9491 90.6947C92.9491 90.7404 92.9644 90.8085 92.9938 90.8989C93.0843 91.1408 93.2733 91.2617 93.5609 91.2617C93.6818 91.2617 93.7723 91.2465 93.8333 91.217C94.0142 91.1571 94.1585 91.0504 94.2642 90.8989C94.3709 90.7485 94.3932 90.5819 94.3333 90.4ZM92.5853 90.4223C92.5243 90.2861 92.4339 90.1804 92.3129 90.1042C92.192 90.029 92.0629 89.9914 91.9278 89.9914C91.8516 89.9914 91.7692 90.0067 91.6778 90.0361C91.5111 90.1124 91.379 90.2374 91.2804 90.4101C91.1818 90.5849 91.1625 90.7475 91.2235 90.8979C91.314 91.155 91.5101 91.2831 91.814 91.2831C92.0711 91.2831 92.2794 91.1967 92.4379 91.0219C92.5965 90.8502 92.6463 90.65 92.5853 90.4223ZM92.4359 100.408C92.6778 99.8176 92.8709 99.156 93.0152 98.4223C93.1585 97.6885 93.2306 96.9741 93.2306 96.278C93.2306 95.1743 92.9512 94.1266 92.3912 93.1347C91.8312 92.1439 91.0863 91.3461 90.1554 90.7404C89.2245 90.1357 88.2306 89.8329 87.1717 89.8329C86.2947 89.8329 85.4735 90.0707 84.7093 90.5473C83.9451 91.0239 83.3404 91.6672 82.8943 92.4762C82.4481 93.2861 82.2256 94.1591 82.2256 95.0971C82.2256 96.2312 82.4746 97.2343 82.9746 98.1032C83.4735 98.9731 84.1738 99.6499 85.0731 100.135C85.9725 100.619 87.0132 100.861 88.193 100.861C89.5853 100.861 90.7266 100.604 91.6199 100.089C91.3932 100.619 91.128 101.012 90.8251 101.269H93.8658V100.407H92.4359V100.408ZM92.0965 98.593C91.6575 99.0767 91.1209 99.4324 90.4857 99.6591C89.8506 99.8857 89.0863 99.9995 88.1941 99.9995C87.1808 99.9995 86.2876 99.7952 85.5162 99.3867C84.7439 98.9782 84.1473 98.403 83.7235 97.6621C83.2998 96.9213 83.0884 96.0666 83.0884 95.0981C83.0884 94.3115 83.2733 93.5819 83.6443 92.9081C84.0152 92.2353 84.5142 91.6977 85.1422 91.2973C85.7703 90.8969 86.4471 90.6957 87.1737 90.6957C88.066 90.6957 88.9136 90.9569 89.7154 91.4782C90.5172 91.9995 91.1605 92.6926 91.6442 93.5544C92.128 94.4172 92.3709 95.3247 92.3709 96.278C92.3688 97.0646 92.2774 97.8359 92.0965 98.593Z" fill="#F5BF13"/>
<path d="M92.3683 96.2781C92.3683 97.0647 92.2779 97.836 92.096 98.5931C91.657 99.0769 91.1204 99.4325 90.4852 99.6592C89.8501 99.8858 89.0858 99.9996 88.1936 99.9996C87.1804 99.9996 86.2871 99.7954 85.5157 99.3868C84.7434 98.9783 84.1468 98.4031 83.7231 97.6622C83.2993 96.9214 83.0879 96.0667 83.0879 95.0982C83.0879 94.3116 83.2728 93.582 83.6438 92.9082C84.0147 92.2354 84.5137 91.6978 85.1417 91.2974C85.7698 90.897 86.4466 90.6958 87.1732 90.6958C88.0655 90.6958 88.9131 90.957 89.7149 91.4783C90.5167 91.9997 91.16 92.6927 91.6437 93.5545C92.1255 94.4173 92.3683 95.3249 92.3683 96.2781Z" fill="#FCE5B1"/>
<path d="M97.3567 90.4824C97.3232 90.3279 97.2449 90.2029 97.123 90.1094C97.001 90.0159 96.8638 89.9631 96.7124 89.9509C96.5153 89.9356 96.3394 89.9936 96.184 90.1267C96.0285 90.2598 95.9441 90.4092 95.9309 90.5759C95.9167 90.7578 95.9665 90.9072 96.0783 91.023C96.1921 91.1389 96.3384 91.2039 96.5203 91.2182C96.748 91.2364 96.9553 91.1724 97.1423 91.0271C97.3293 90.8818 97.4004 90.6999 97.3567 90.4824ZM105.049 92.4194C104.699 91.6501 104.186 91.0312 103.509 90.5647C102.832 90.0982 102.02 89.8645 101.072 89.8645C99.9837 89.8645 99.0234 90.1877 98.1921 90.833C97.3598 91.4783 96.7144 92.3919 96.2561 93.5738C95.7978 94.7557 95.5681 96.1155 95.5681 97.6551C95.5681 98.4945 95.6464 99.4041 95.8008 100.384H94.7978C94.7663 99.5128 94.751 98.8441 94.751 98.3777C94.751 97.7496 94.7775 96.8126 94.8334 95.5667H93.9584C93.8964 96.8675 93.8649 97.836 93.8649 98.4712C93.8649 98.9071 93.8801 99.5443 93.9116 100.384H93.8242V101.27H95.9644C96.0579 101.705 96.5671 103.617 96.6443 103.898C96.6484 103.916 96.6555 103.932 96.6646 103.945H97.5071C97.4919 103.866 96.9899 101.939 96.8496 101.27C98.0153 101.27 99.0844 101.208 100.057 101.084C101.028 100.959 101.88 100.695 102.611 100.291C103.559 99.7466 104.291 98.9895 104.804 98.0169C105.317 97.0454 105.573 96.0149 105.573 94.9265C105.574 94.0251 105.399 93.1887 105.049 92.4194ZM104.058 97.6084C103.653 98.4173 103.063 99.0393 102.286 99.4742C101.601 99.8634 100.797 100.112 99.8709 100.22C98.9451 100.33 97.8842 100.384 96.687 100.384C96.5315 99.2334 96.4533 98.3238 96.4533 97.6551C96.4533 96.2872 96.6433 95.082 97.0244 94.0393C97.4055 92.9976 97.9461 92.1887 98.6453 91.6135C99.3455 91.0383 100.153 90.7497 101.071 90.7497C101.817 90.7497 102.462 90.9478 103.007 91.3452C103.551 91.7415 103.963 92.2669 104.243 92.9194C104.522 93.5718 104.663 94.272 104.663 95.0179C104.665 95.9377 104.462 96.8005 104.058 97.6084Z" fill="#43A335"/>
<path d="M104.664 95.0199C104.664 95.9376 104.462 96.8004 104.058 97.6083C103.653 98.4173 103.063 99.0392 102.285 99.4742C101.6 99.8634 100.797 100.112 99.8708 100.22C98.945 100.33 97.884 100.384 96.6869 100.384C96.5314 99.2333 96.4531 98.3238 96.4531 97.6551C96.4531 96.2872 96.6432 95.0819 97.0243 94.0393C97.4054 92.9976 97.946 92.1887 98.6452 91.6135C99.3444 91.0383 100.153 90.7496 101.071 90.7496C101.817 90.7496 102.462 90.9478 103.007 91.3452C103.551 91.7415 103.963 92.2669 104.243 92.9193C104.524 93.5738 104.664 94.273 104.664 95.0199Z" fill="#C2D9AE"/>
<path d="M116.733 93.5626C116.165 92.4823 115.38 91.591 114.377 90.8918C113.374 90.1927 112.267 89.842 111.053 89.842C110.214 89.842 109.428 90.1063 108.697 90.6347C107.966 91.1632 107.387 91.8786 106.96 92.78C106.532 93.6815 106.318 94.6622 106.318 95.7191C106.318 96.6205 106.493 97.4568 106.844 98.2262C107.194 98.9955 107.703 99.6408 108.371 100.162C109.04 100.683 109.833 101.014 110.75 101.153C111.357 101.246 111.916 101.293 112.43 101.293C112.927 101.293 113.448 101.239 113.992 101.13C113.339 101.627 112.655 102.086 111.94 102.506C111.344 102.856 110.839 103.119 110.426 103.296V104.076L110.447 104.139C110.929 103.998 111.602 103.668 112.465 103.148C113.327 102.628 114.163 102.029 114.972 101.352C115.78 100.676 116.386 100.05 116.791 99.4751C117.319 98.776 117.584 97.8888 117.584 96.8166C117.584 95.7272 117.3 94.6428 116.733 93.5626ZM115.625 99.3115C114.895 100.011 113.791 100.361 112.313 100.361C111.909 100.361 111.412 100.323 110.82 100.244C110.135 100.151 109.514 99.8827 108.955 99.4396C108.395 98.9965 107.951 98.4447 107.625 97.7841C107.299 97.1235 107.135 96.4274 107.135 95.6967C107.135 94.8105 107.314 93.9823 107.672 93.213C108.03 92.4437 108.503 91.8329 109.095 91.3817C109.685 90.9315 110.315 90.7059 110.984 90.7059C112.041 90.7059 113.009 91.0057 113.888 91.6032C114.766 92.2018 115.459 92.964 115.965 93.8888C116.47 94.8146 116.723 95.7353 116.723 96.653C116.721 97.7251 116.356 98.6113 115.625 99.3115Z" fill="#EC633F"/>
<path d="M116.721 96.6521C116.721 97.7252 116.356 98.6114 115.625 99.3106C114.894 100.01 113.79 100.36 112.313 100.36C111.908 100.36 111.411 100.322 110.82 100.244C110.135 100.15 109.514 99.8817 108.954 99.4387C108.394 98.9956 107.951 98.4437 107.625 97.7832C107.298 97.1226 107.135 96.4265 107.135 95.6958C107.135 94.8096 107.314 93.9814 107.671 93.2121C108.029 92.4428 108.503 91.832 109.094 91.3808C109.685 90.9306 110.315 90.705 110.983 90.705C112.04 90.705 113.009 91.0047 113.888 91.6023C114.766 92.2009 115.458 92.9631 115.964 93.8879C116.469 94.8137 116.721 95.7344 116.721 96.6521Z" fill="#F9C7B0"/>
<path d="M116.682 106.842C115.654 108.43 114.413 109.709 112.995 110.643C111.518 111.616 109.914 112.169 108.227 112.287C108.007 112.302 107.786 112.31 107.567 112.31C105.568 112.31 103.579 111.678 101.776 110.466C99.8715 109.185 98.217 107.287 96.9863 104.975H97.8837C100.319 109.287 104.223 111.778 108.172 111.502C111.248 111.287 114.037 109.48 116.022 106.414C117.995 103.367 118.942 99.4457 118.698 95.3472H119.485C119.73 99.5951 118.738 103.668 116.682 106.842Z" fill="#11B4D9"/>
<path d="M25.7095 102.42C24.5276 104.165 22.9564 105.486 21.0926 106.218C17.9971 107.435 14.4443 106.97 11.0896 104.904C8.48902 103.303 6.24919 100.896 4.60082 97.9671C4.59168 97.9508 4.58152 97.9356 4.57339 97.9193C4.22684 97.3004 3.90774 96.6571 3.61607 95.9955C3.60896 95.9803 3.60388 95.965 3.59676 95.9508C3.57949 95.9102 3.56119 95.8685 3.54188 95.8278C5.09066 95.4864 6.29492 94.9041 7.15874 94.0789C8.03475 93.2415 8.47276 92.2303 8.47276 91.0464C8.47276 90.401 8.3498 89.7547 8.10488 89.1094C7.82744 88.3563 7.32846 87.6673 6.6059 87.0454C5.88233 86.4214 5.00936 85.9336 3.98802 85.5799C2.96465 85.2263 1.90063 85.0494 0.792913 85.0494C0.47076 85.0494 0.223809 85.0576 0.0551102 85.0728H0.0317383C0.200437 86.9641 0.335599 89.0972 0.435192 91.4742C0.535801 93.8492 0.585596 96.1287 0.585596 98.3136C0.585596 99.2211 0.580514 100.278 0.569336 100.875H1.44637C1.45754 100.284 1.46161 99.3055 1.46161 98.4752C1.46161 97.4305 1.4545 96.6388 1.44027 96.1002L2.31628 96.0311L2.69128 95.9945C2.76953 96.1805 2.84982 96.3654 2.93315 96.5474H2.93417C2.93925 96.5626 2.94534 96.5748 2.95144 96.59C4.7055 100.455 7.40569 103.638 10.6465 105.632C12.3843 106.702 14.1851 107.372 15.9992 107.623C17.8904 107.886 19.7075 107.679 21.4056 107.013C21.6262 106.925 21.8447 106.831 22.0591 106.729C23.9483 105.829 25.552 104.355 26.7359 102.425H25.7095V102.42ZM1.43925 95.2211C1.361 91.7781 1.20856 88.6795 0.977872 85.9265C1.88539 85.9417 2.78376 86.1063 3.67603 86.4214C4.56729 86.7364 5.33659 87.1572 5.98192 87.6795C6.62826 88.2019 7.05813 88.771 7.27358 89.3858C7.47276 89.9386 7.57337 90.4773 7.57337 90.9996C7.57337 92.1988 7.03476 93.1714 5.95956 93.9183C4.88233 94.6642 3.37623 95.0982 1.43925 95.2211Z" fill="#11B4D9"/>
<path d="M20.0299 89.5474H19.1539C19.1691 89.6704 19.1762 91.0779 19.1762 93.7689C18.6691 92.5545 17.8876 91.5433 16.8358 90.7354C15.7819 89.9275 14.6021 89.525 13.2952 89.525C12.4649 89.525 11.6885 89.7872 10.9659 90.3096C10.2434 90.8319 9.67019 91.5392 9.24742 92.4315C8.82466 93.3238 8.61328 94.2923 8.61328 95.338C8.61328 96.2303 8.78604 97.0565 9.13259 97.8177C9.47811 98.5788 9.98218 99.2171 10.6427 99.7323C11.3033 100.248 12.0879 100.574 12.9954 100.713C13.595 100.805 14.1488 100.851 14.6559 100.851C15.7779 100.851 16.7159 100.663 17.47 100.286C18.223 99.9101 18.7921 99.3908 19.1762 98.7293C19.1762 100.021 19.1691 100.721 19.1539 100.829H20.0299C20.0604 100.46 20.0756 98.5687 20.0756 95.1551C20.0756 91.7242 20.0614 89.8553 20.0299 89.5474ZM17.8155 98.8888C17.0929 99.5809 16.0004 99.9264 14.5401 99.9264C14.1397 99.9264 13.6478 99.8878 13.0635 99.8116C12.3866 99.7191 11.7718 99.4538 11.2179 99.0158C10.6641 98.5778 10.2261 98.0321 9.90392 97.3776C9.58076 96.7242 9.41917 96.0362 9.41917 95.3136C9.41917 94.4376 9.596 93.6185 9.94966 92.8573C10.3033 92.0962 10.7718 91.4925 11.3562 91.0464C11.9405 90.6002 12.5635 90.3777 13.224 90.3777C14.2698 90.3777 15.2271 90.6744 16.096 91.2659C16.9649 91.8583 17.6488 92.6114 18.1488 93.526C18.6488 94.4417 18.8988 95.3522 18.8988 96.2598C18.8998 97.3207 18.538 98.1978 17.8155 98.8888Z" fill="#EC633F"/>
<path d="M18.8996 96.2597C18.8996 97.3206 18.5378 98.1977 17.8152 98.8887C17.0927 99.5808 16.0002 99.9263 14.5399 99.9263C14.1395 99.9263 13.6476 99.8877 13.0632 99.8115C12.3864 99.719 11.7716 99.4537 11.2177 99.0157C10.6639 98.5777 10.2259 98.032 9.9037 97.3775C9.58053 96.7241 9.41895 96.0361 9.41895 95.3135C9.41895 94.4375 9.59577 93.6184 9.94943 92.8572C10.3031 92.0961 10.7716 91.4924 11.3559 91.0463C11.9403 90.6001 12.5632 90.3776 13.2238 90.3776C14.2695 90.3776 15.2268 90.6743 16.0957 91.2658C16.9646 91.8582 17.6486 92.6113 18.1486 93.5259C18.6496 94.4416 18.8996 95.3521 18.8996 96.2597Z" fill="#F9C7B0"/>
<path d="M40.234 89.5241H39.355C39.418 90.1664 39.4495 90.8971 39.4495 91.7151C39.4495 93.3909 39.2605 94.8523 38.8845 96.0972C38.5074 97.3432 37.9658 98.3045 37.2584 98.9803C36.5511 99.6572 35.7127 99.9956 34.7442 99.9956C34.0837 99.9956 33.4333 99.7192 32.795 99.1653C32.1568 98.6114 31.6375 97.8736 31.2381 96.9509C31.5298 95.9214 31.6761 94.583 31.6761 92.9377C31.6761 91.7924 31.6253 90.6542 31.5247 89.5241H30.6396C30.6385 89.5312 30.6386 89.5393 30.6386 89.5464C30.7615 90.9306 30.8235 92.1155 30.8235 93.0983C30.8235 94.3127 30.731 95.3818 30.5471 96.3045C30.2849 97.519 29.8052 98.4346 29.106 99.0494C28.4058 99.6653 27.4333 99.9722 26.1884 99.9722C25.0654 99.9722 24.1548 99.5383 23.4546 98.6694C22.7544 97.8015 22.3662 96.6358 22.29 95.1745V92.7985C22.29 91.0688 22.2849 89.9773 22.2758 89.5231H21.4018C21.4252 90.209 21.4364 92.0312 21.4364 94.9895C21.4364 98.4031 21.4211 100.265 21.3906 100.572H22.2666C22.2819 100.495 22.29 99.7954 22.29 98.4722C22.7057 99.2263 23.2473 99.8106 23.916 100.225C24.5847 100.641 25.3418 100.848 26.1884 100.848C28.4333 100.848 29.979 99.9478 30.8245 98.149C31.2859 98.9793 31.8662 99.6409 32.5664 100.133C33.2656 100.625 33.9922 100.871 34.7463 100.871C35.8997 100.871 36.8946 100.495 37.733 99.7405C38.5714 98.9875 39.2127 97.9143 39.6588 96.522C40.105 95.1308 40.3275 93.5048 40.3275 91.644C40.3265 91.0556 40.295 90.3483 40.234 89.5241Z" fill="#2872B9"/>
<path d="M52.8272 95.2679V85.0494H51.9512V92.0382C51.4746 91.3004 50.8242 90.7273 50.002 90.3197C49.1789 89.9132 48.2906 89.709 47.3374 89.709C46.2917 89.709 45.3222 89.9204 44.4309 90.3431C43.5386 90.7659 42.8313 91.339 42.309 92.0616C41.7856 92.7852 41.5244 93.5606 41.5244 94.3909C41.5244 95.5911 41.871 96.6866 42.562 97.6784C43.2541 98.6703 44.1342 99.4508 45.2033 100.019C46.2724 100.588 47.3445 100.873 48.4207 100.873C49.2815 100.873 50.0549 100.673 50.7388 100.273C51.4227 99.8736 51.9573 99.2547 52.3425 98.4163C52.7276 97.5789 52.8892 96.5291 52.8272 95.2679ZM50.9014 98.9122C50.2175 99.6358 49.3364 99.9965 48.2602 99.9965C47.3526 99.9965 46.4411 99.7465 45.5264 99.2465C44.6108 98.7476 43.8577 98.0626 43.2663 97.1937C42.6738 96.3248 42.3781 95.3675 42.3781 94.3218C42.3781 93.6612 42.6006 93.0382 43.0468 92.4539C43.4929 91.8695 44.0966 91.401 44.8577 91.0474C45.6189 90.6937 46.438 90.5169 47.314 90.5169C48.0366 90.5169 48.7246 90.6785 49.378 91.0017C50.0315 91.3248 50.5772 91.7628 51.0162 92.3157C51.4542 92.8695 51.7195 93.4844 51.812 94.1612C51.8892 94.7455 51.9268 95.2374 51.9268 95.6378C51.9278 97.0982 51.5864 98.1896 50.9014 98.9122Z" fill="#E83F4C"/>
<path d="M51.9282 95.6367C51.9282 97.0981 51.5857 98.1896 50.9018 98.9121C50.2178 99.6357 49.3367 99.9965 48.2605 99.9965C47.353 99.9965 46.4414 99.7465 45.5268 99.2465C44.6111 98.7475 43.8581 98.0625 43.2666 97.1936C42.6741 96.3247 42.3784 95.3674 42.3784 94.3217C42.3784 93.6611 42.601 93.0382 43.0471 92.4538C43.4933 91.8695 44.0969 91.401 44.8581 91.0473C45.6193 90.6937 46.4384 90.5168 47.3144 90.5168C48.0369 90.5168 48.7249 90.6784 49.3784 91.0016C50.0318 91.3248 50.5776 91.7628 51.0166 92.3156C51.4546 92.8695 51.7198 93.4843 51.8123 94.1611C51.8906 94.7455 51.9282 95.2374 51.9282 95.6367Z" fill="#F7BDB4"/>
<path d="M65.445 89.5474H64.568C64.5832 89.6704 64.5914 91.0779 64.5914 93.7689C64.0843 92.5545 63.3028 91.5433 62.2499 90.7354C61.1971 89.9275 60.0162 89.525 58.7093 89.525C57.879 89.525 57.1026 89.7872 56.38 90.3096C55.6564 90.8319 55.0843 91.5392 54.6615 92.4315C54.2377 93.3238 54.0264 94.2923 54.0264 95.338C54.0264 96.2303 54.2002 97.0565 54.5457 97.8177C54.8922 98.5788 55.3953 99.2171 56.0569 99.7323C56.7174 100.248 57.502 100.574 58.4095 100.713C59.0091 100.805 59.5629 100.851 60.07 100.851C61.192 100.851 62.13 100.663 62.8841 100.286C63.6371 99.9101 64.2062 99.3908 64.5914 98.7293C64.5914 100.021 64.5832 100.721 64.568 100.829H65.445C65.4755 100.46 65.4908 98.5687 65.4908 95.1551C65.4908 91.7242 65.4755 89.8553 65.445 89.5474ZM63.2306 98.8888C62.507 99.5809 61.4156 99.9264 59.9552 99.9264C59.5548 99.9264 59.0629 99.8878 58.4786 99.8116C57.8018 99.7191 57.1869 99.4538 56.6331 99.0158C56.0792 98.5778 55.6412 98.0321 55.319 97.3776C54.9959 96.7242 54.8343 96.0362 54.8343 95.3136C54.8343 94.4376 55.0111 93.6185 55.3648 92.8573C55.7184 92.0962 56.1869 91.4925 56.7713 91.0464C57.3556 90.6002 57.9786 90.3777 58.6392 90.3777C59.6849 90.3777 60.6422 90.6744 61.5111 91.2659C62.379 91.8583 63.0639 92.6114 63.5639 93.526C64.0629 94.4417 64.3129 95.3522 64.3129 96.2598C64.3149 97.3207 63.9532 98.1978 63.2306 98.8888Z" fill="#43A335"/>
<path d="M64.3156 96.2597C64.3156 97.3206 63.9538 98.1977 63.2313 98.8887C62.5077 99.5808 61.4162 99.9263 59.9559 99.9263C59.5555 99.9263 59.0636 99.8877 58.4793 99.8115C57.8024 99.719 57.1876 99.4537 56.6337 99.0157C56.0799 98.5777 55.6419 98.032 55.3197 97.3775C54.9965 96.7241 54.835 96.0361 54.835 95.3135C54.835 94.4375 55.0118 93.6184 55.3654 92.8572C55.7191 92.0961 56.1876 91.4924 56.7719 91.0463C57.3563 90.6001 57.9793 90.3776 58.6398 90.3776C59.6856 90.3776 60.6429 90.6743 61.5118 91.2658C62.3796 91.8582 63.0646 92.6113 63.5646 93.5259C64.0646 94.4416 64.3156 95.3521 64.3156 96.2597Z" fill="#C2D9AE"/>
<path d="M79.3194 93.3766C78.8651 92.1622 78.2046 91.2201 77.3357 90.5515C76.4668 89.8828 75.4322 89.5474 74.233 89.5474C72.7716 89.5474 71.4536 89.9671 70.2767 90.8045C69.0999 91.6429 68.1965 92.7923 67.5664 94.2527V90.585C67.5664 87.0637 67.5582 85.2181 67.543 85.0494H66.667C66.6975 85.4498 66.7127 88.0403 66.7127 92.8228C66.7127 97.5738 66.6975 100.242 66.667 100.827H67.543C67.543 100.75 67.5471 100.535 67.5542 100.18C67.5613 99.8268 67.5654 99.212 67.5654 98.335C67.6111 96.8126 67.9302 95.4478 68.5227 94.2415C69.1141 93.0342 69.9109 92.0962 70.9099 91.4275C71.9099 90.7588 73.0166 90.4244 74.232 90.4244C75.7696 90.4244 76.9688 91.0667 77.8306 92.3502C78.6913 93.6348 79.1222 95.3838 79.1222 97.5982C79.1222 98.5057 79.0369 99.5128 78.8682 100.62C78.8529 100.681 78.8834 100.727 78.9606 100.758L79.607 100.85C79.668 100.865 79.7137 100.835 79.7452 100.758C79.9139 99.6195 79.9993 98.589 79.9993 97.6673C80.0003 96.0209 79.7726 94.5911 79.3194 93.3766Z" fill="#F5BF13"/>
</svg>
