<svg xmlns="http://www.w3.org/2000/svg" xmlns:xlink="http://www.w3.org/1999/xlink" width="1817.706" height="790.268" viewBox="0 0 1817.706 790.268">
  <defs>
    <clipPath id="clip-path">
      <rect id="Rectangle_8" data-name="Rectangle 8" width="113.029" height="300.261" fill="none"/>
    </clipPath>
    <clipPath id="clip-path-6">
      <rect id="Rectangle_12" data-name="Rectangle 12" width="151.528" height="104.986" transform="translate(0 0)" fill="#dae8f9"/>
    </clipPath>
  </defs>
  <g id="Group_21" data-name="Group 21" transform="translate(-29.398 -170.039)">
    <g id="Group_5" data-name="Group 5" transform="translate(1682.287 178.867)" clip-path="url(#clip-path)">
      <path id="Path_8" data-name="Path 8" d="M22.052.886l8.218,9.856a2.454,2.454,0,0,0,2.114.873l12.779-1.181a2.458,2.458,0,0,1,2.307,3.757L40.635,25.052a2.458,2.458,0,0,0-.178,2.281L45.53,39.12a2.458,2.458,0,0,1-2.859,3.355L30.228,39.331A2.457,2.457,0,0,0,28,39.867l-9.644,8.468a2.458,2.458,0,0,1-4.074-1.683l-.855-12.8a2.459,2.459,0,0,0-1.2-1.95L1.2,25.343a2.459,2.459,0,0,1,.341-4.4l11.913-4.77a2.456,2.456,0,0,0,1.484-1.741L17.766,1.919A2.459,2.459,0,0,1,22.052.886" transform="translate(0 0)" fill="#b1d1fb" opacity="0.4"/>
      <path id="Path_20" data-name="Path 20" d="M22.052.886l8.218,9.856a2.454,2.454,0,0,0,2.114.873l12.779-1.181a2.458,2.458,0,0,1,2.307,3.757L40.635,25.052a2.458,2.458,0,0,0-.178,2.281L45.53,39.12a2.458,2.458,0,0,1-2.859,3.355L30.228,39.331A2.457,2.457,0,0,0,28,39.867l-9.644,8.468a2.458,2.458,0,0,1-4.074-1.683l-.855-12.8a2.459,2.459,0,0,0-1.2-1.95L1.2,25.343a2.459,2.459,0,0,1,.341-4.4l11.913-4.77a2.456,2.456,0,0,0,1.484-1.741L17.766,1.919A2.459,2.459,0,0,1,22.052.886" transform="translate(-1466 300.261)" fill="#b1d1fb" opacity="0.4"/>
      <path id="Path_9" data-name="Path 9" d="M69.178,164.067l-1.067,12.788A2.454,2.454,0,0,0,69,178.961l9.928,8.128a2.459,2.459,0,0,1-.994,4.3l-12.491,2.937a2.458,2.458,0,0,0-1.727,1.5l-4.663,11.954a2.458,2.458,0,0,1-4.392.383L48.01,197.186a2.452,2.452,0,0,0-1.959-1.18l-12.812-.741a2.458,2.458,0,0,1-1.72-4.059l8.38-9.72a2.458,2.458,0,0,0,.517-2.228L37.16,166.846a2.459,2.459,0,0,1,3.33-2.89l11.832,4.967a2.461,2.461,0,0,0,2.28-.2l10.8-6.932a2.459,2.459,0,0,1,3.778,2.273" transform="translate(8.906 46.489)" fill="#f5f5f5"/>
    </g>
    <g id="Group_18" data-name="Group 18" transform="translate(113.897 385.169)" clip-path="url(#clip-path)">
      <path id="Path_21" data-name="Path 21" d="M22.052.886l8.218,9.856a2.454,2.454,0,0,0,2.114.873l12.779-1.181a2.458,2.458,0,0,1,2.307,3.757L40.635,25.052a2.458,2.458,0,0,0-.178,2.281L45.53,39.12a2.458,2.458,0,0,1-2.859,3.355L30.228,39.331A2.457,2.457,0,0,0,28,39.867l-9.644,8.468a2.458,2.458,0,0,1-4.074-1.683l-.855-12.8a2.459,2.459,0,0,0-1.2-1.95L1.2,25.343a2.459,2.459,0,0,1,.341-4.4l11.913-4.77a2.456,2.456,0,0,0,1.484-1.741L17.766,1.919A2.459,2.459,0,0,1,22.052.886" transform="translate(0 0)" fill="#b1d1fb" opacity="0.4"/>
      <path id="Path_22" data-name="Path 22" d="M22.052.886l8.218,9.856a2.454,2.454,0,0,0,2.114.873l12.779-1.181a2.458,2.458,0,0,1,2.307,3.757L40.635,25.052a2.458,2.458,0,0,0-.178,2.281L45.53,39.12a2.458,2.458,0,0,1-2.859,3.355L30.228,39.331A2.457,2.457,0,0,0,28,39.867l-9.644,8.468a2.458,2.458,0,0,1-4.074-1.683l-.855-12.8a2.459,2.459,0,0,0-1.2-1.95L1.2,25.343a2.459,2.459,0,0,1,.341-4.4l11.913-4.77a2.456,2.456,0,0,0,1.484-1.741L17.766,1.919A2.459,2.459,0,0,1,22.052.886" transform="translate(-1466 300.261)" fill="#b1d1fb" opacity="0.4"/>
    </g>
    <g id="Group_8" data-name="Group 8" transform="translate(1641.074 235.039)">
      <g id="Group_7" data-name="Group 7" clip-path="url(#clip-path)">
        <path id="Path_10" data-name="Path 10" d="M24.677,216.724l5.179,2.687A1.119,1.119,0,0,0,30.9,219.4l5.15-2.743a1.118,1.118,0,0,1,1.628,1.17l-.954,5.755a1.119,1.119,0,0,0,.326.988l4.2,4.05a1.118,1.118,0,0,1-.608,1.91l-5.769.869a1.121,1.121,0,0,0-.839.617l-2.553,5.246a1.118,1.118,0,0,1-2,.01l-2.611-5.217a1.114,1.114,0,0,0-.845-.607l-5.778-.808a1.118,1.118,0,0,1-.63-1.9l4.155-4.1a1.117,1.117,0,0,0,.316-.99l-1.018-5.745a1.118,1.118,0,0,1,1.615-1.188" transform="translate(5.552 62.368)" fill="#dae8f9"/>
      </g>
    </g>
    <g id="Group_10" data-name="Group 10" transform="translate(1641.074 235.039)">
      <g id="Group_9" data-name="Group 9" transform="translate(93 -65)" clip-path="url(#clip-path)">
        <path id="Path_11" data-name="Path 11" d="M32.117,134.146l14.074-4.419a37.563,37.563,0,1,0-9.731-9.3l-.015-.013Z" transform="translate(8.437 17.538)" fill="none"/>
        <path id="Path_12" data-name="Path 12" d="M32.169,134.212s.075-.28.25-.86c.184-.613.447-1.481.788-2.611.72-2.364,1.775-5.818,3.143-10.3a.152.152,0,0,1,.191-.1.149.149,0,0,1,.053.028l.017.013-.222.21a37.407,37.407,0,0,1-7.007-17.69,37.858,37.858,0,0,1,31.15-41.732,38.5,38.5,0,0,1,17.079,1.061,38.927,38.927,0,0,1,8.207,3.492,37.438,37.438,0,0,1,16.793,20.513,38.255,38.255,0,0,1,1.749,16.944,37.2,37.2,0,0,1-5.39,15.159A37.947,37.947,0,0,1,76.323,134.99a38.677,38.677,0,0,1-12.138,1.1,37.422,37.422,0,0,1-18.026-6.167l.131.018c-4.6,1.4-8.137,2.474-10.559,3.21l-2.678.806c-.6.178-.884.255-.884.255L46.2,129.645a.156.156,0,0,1,.131.019,37.38,37.38,0,0,0,17.888,5.97,38.358,38.358,0,0,0,11.976-1.146,37.469,37.469,0,0,0,22.256-16.477,36.608,36.608,0,0,0,5.272-14.915,37.667,37.667,0,0,0-1.738-16.649,37.764,37.764,0,0,0-16.5-20.15,38.379,38.379,0,0,0-8.061-3.434A37.918,37.918,0,0,0,60.638,61.8a37.006,37.006,0,0,0-14.727,5.956,37.288,37.288,0,0,0-9.274,52.649.154.154,0,0,1-.222.21L36.4,120.6l.243-.073-4.473,13.683" transform="translate(8.385 17.473)" fill="#263238"/>
        <path id="Path_13" data-name="Path 13" d="M69.219,104.664l.339-15.207s-3.333-.725-6.216-5.343a25.4,25.4,0,0,1-3.093-6.838,1.727,1.727,0,0,0-1.812-1.3,2.632,2.632,0,0,0-2.33,1.6c-1.069,2.3.359,7.964.359,7.964s.6,1.145-.985,1.109l-5.647-.125a3.072,3.072,0,0,0-2.024.672,2.284,2.284,0,0,0-.871,1.977c.122,2.152,1.231,3.139,1.221,3.591a4.133,4.133,0,0,0-.227,2.54c.424,1.31.708,1.2.7,1.825a10.127,10.127,0,0,0,.438,3.178,4.619,4.619,0,0,0,.817,1.432,7.831,7.831,0,0,0,.323,3.23c.54,1.2,2.9,1.874,3.692,1.892s6.47-.987,8.062-1.347,5.749-1.626,7.258-.857" transform="translate(13.519 21.882)" fill="#4294ff"/>
        <rect id="Rectangle_10" data-name="Rectangle 10" width="15.621" height="5.812" transform="matrix(0.022, -1, 1, 0.022, 85.223, 126.668)" fill="#4294ff"/>
      </g>
      <g id="Group_17" data-name="Group 17" transform="matrix(0.914, -0.407, 0.407, 0.914, -1600.178, 450.966)" clip-path="url(#clip-path)">
        <path id="Path_17" data-name="Path 17" d="M101.466,134.146l-14.074-4.419a37.563,37.563,0,1,1,9.731-9.3l.015-.013Z" transform="translate(-28.991 17.538)" fill="none"/>
        <path id="Path_18" data-name="Path 18" d="M101.586,134.212s-.075-.28-.25-.86c-.184-.613-.447-1.481-.788-2.611-.72-2.364-1.775-5.818-3.143-10.3a.152.152,0,0,0-.191-.1.149.149,0,0,0-.053.028l-.017.013.222.21a37.407,37.407,0,0,0,7.007-17.69,37.858,37.858,0,0,0-31.15-41.732,38.5,38.5,0,0,0-17.079,1.061,38.927,38.927,0,0,0-8.207,3.492A37.438,37.438,0,0,0,31.143,86.231a38.255,38.255,0,0,0-1.749,16.944,37.2,37.2,0,0,0,5.39,15.159A37.947,37.947,0,0,0,57.432,134.99a38.677,38.677,0,0,0,12.138,1.1A37.422,37.422,0,0,0,87.6,129.923l-.131.018c4.6,1.4,8.137,2.474,10.559,3.21l2.678.806c.6.178.884.255.884.255l-14.028-4.567a.156.156,0,0,0-.131.019,37.38,37.38,0,0,1-17.888,5.97,38.358,38.358,0,0,1-11.976-1.146,37.469,37.469,0,0,1-22.256-16.477A36.608,36.608,0,0,1,30.034,103.1a37.667,37.667,0,0,1,1.738-16.649,37.764,37.764,0,0,1,16.5-20.15,38.379,38.379,0,0,1,8.061-3.434A37.918,37.918,0,0,1,73.116,61.8a37.006,37.006,0,0,1,14.727,5.956,37.288,37.288,0,0,1,9.274,52.649.154.154,0,0,0,.222.21l.017-.013-.243-.073,4.473,13.683" transform="translate(-29.11 17.473)" fill="#263238"/>
        <path id="Path_19" data-name="Path 19" d="M47.274,104.664l-.339-15.207s3.333-.725,6.216-5.343a25.4,25.4,0,0,0,3.093-6.838,1.727,1.727,0,0,1,1.812-1.3,2.632,2.632,0,0,1,2.33,1.6c1.069,2.3-.359,7.964-.359,7.964s-.6,1.145.985,1.109l5.647-.125a3.072,3.072,0,0,1,2.024.672,2.284,2.284,0,0,1,.871,1.977c-.122,2.152-1.231,3.139-1.221,3.591a4.133,4.133,0,0,1,.227,2.54c-.424,1.31-.708,1.2-.7,1.825a10.127,10.127,0,0,1-.438,3.178,4.619,4.619,0,0,1-.817,1.432,7.831,7.831,0,0,1-.323,3.23c-.54,1.2-2.9,1.874-3.692,1.892s-6.47-.987-8.062-1.347-5.749-1.626-7.258-.857" transform="translate(-16.984 21.882)" fill="#4294ff"/>
        <rect id="Rectangle_14" data-name="Rectangle 14" width="15.621" height="5.812" transform="translate(21.996 126.797) rotate(-91.276)" fill="#4294ff"/>
      </g>
    </g>
    <g id="Group_16" data-name="Group 16" transform="translate(29.398 664.107)">
      <g id="Group_13" data-name="Group 13">
        <g id="Group_12" data-name="Group 12" clip-path="url(#clip-path-6)">
          <path id="Path_14" data-name="Path 14" d="M12.3,75.04l5.639,5.6a1.524,1.524,0,0,0,1.354.416l7.809-1.471a1.522,1.522,0,0,1,1.641,2.182l-3.583,7.093a1.522,1.522,0,0,0,.023,1.416L29,97.248a1.522,1.522,0,0,1-1.568,2.234l-7.853-1.215a1.522,1.522,0,0,0-1.34.459l-5.453,5.78a1.522,1.522,0,0,1-2.61-.8L8.9,95.861a1.521,1.521,0,0,0-.851-1.132l-7.182-3.4A1.522,1.522,0,0,1,.826,88.6l7.068-3.632a1.524,1.524,0,0,0,.814-1.16l1.014-7.881A1.522,1.522,0,0,1,12.3,75.04" fill="#dae8f9"/>
        </g>
      </g>
      <g id="Group_15" data-name="Group 15">
        <g id="Group_14" data-name="Group 14" clip-path="url(#clip-path-6)">
          <path id="Path_15" data-name="Path 15" d="M120.519,19.5l3.212,4.684a1.085,1.085,0,0,0,.895.472l5.679.01a1.088,1.088,0,0,1,.86,1.751l-3.462,4.5a1.084,1.084,0,0,0-.172,1l1.745,5.4a1.088,1.088,0,0,1-1.4,1.36l-5.351-1.9a1.086,1.086,0,0,0-1,.144l-4.6,3.33a1.088,1.088,0,0,1-1.726-.911l.155-5.676a1.086,1.086,0,0,0-.447-.909l-4.588-3.346a1.087,1.087,0,0,1,.333-1.922l5.447-1.607a1.091,1.091,0,0,0,.726-.706l1.764-5.4a1.088,1.088,0,0,1,1.931-.277" fill="#dae8f9"/>
          <path id="Path_16" data-name="Path 16" d="M147.348.359l.849,2.583a.519.519,0,0,0,.348.337l2.609.765a.521.521,0,0,1,.161.92l-2.194,1.6a.519.519,0,0,0-.213.436l.078,2.717a.52.52,0,0,1-.825.437l-2.205-1.59a.521.521,0,0,0-.48-.068l-2.56.914a.521.521,0,0,1-.671-.649l.832-2.589a.521.521,0,0,0-.084-.477l-1.661-2.153a.52.52,0,0,1,.411-.838l2.718-.01a.519.519,0,0,0,.429-.227L146.423.228a.521.521,0,0,1,.925.131" fill="#dae8f9"/>
        </g>
      </g>
    </g>
    <g id="svgexport-17_3_" data-name="svgexport-17 (3)" transform="translate(1609.515 297.448)">
      <path id="Path_24" data-name="Path 24" d="M12.568,33.974A35.025,35.025,0,0,1,6.185,44.054,3.047,3.047,0,0,0,5.9,47.731a2.992,2.992,0,0,0,2.561,1.4,2.523,2.523,0,0,0,.868-.124c6.073-1.776,20.264-8.077,20.657-28.279.145-7.788-5.557-14.48-12.973-15.245A14.481,14.481,0,0,0,1,19.906,14.318,14.318,0,0,0,12.568,33.974ZM49.978,5.488A14.478,14.478,0,0,0,33.989,19.906,14.318,14.318,0,0,0,45.557,33.974a35.025,35.025,0,0,1-6.383,10.081,3.047,3.047,0,0,0-.289,3.677,2.992,2.992,0,0,0,2.561,1.4,2.523,2.523,0,0,0,.868-.124c6.073-1.776,20.264-8.077,20.657-28.279v-.289c0-7.664-5.639-14.191-12.993-14.956Z" transform="translate(-1 -5.414)" fill="#4294ff"/>
    </g>
    <g id="svgexport-17_3_2" data-name="svgexport-17 (3)" transform="translate(257.911 915.307) rotate(180)">
      <path id="Path_24-2" data-name="Path 24" d="M11.568,28.559A35.025,35.025,0,0,1,5.185,38.64,3.047,3.047,0,0,0,4.9,42.317a2.992,2.992,0,0,0,2.561,1.4,2.523,2.523,0,0,0,.868-.124c6.073-1.776,20.264-8.077,20.657-28.279C29.126,7.531,23.425.838,16.009.074A14.651,14.651,0,0,0,4.772,3.73,14.538,14.538,0,0,0,0,14.492,14.318,14.318,0,0,0,11.568,28.559ZM48.978.074A14.478,14.478,0,0,0,32.989,14.492,14.318,14.318,0,0,0,44.557,28.559,35.025,35.025,0,0,1,38.174,38.64a3.047,3.047,0,0,0-.289,3.677,2.992,2.992,0,0,0,2.561,1.4,2.523,2.523,0,0,0,.868-.124c6.073-1.776,20.264-8.077,20.657-28.279v-.289C61.971,7.365,56.331.838,48.978.074Z" fill="#4294ff"/>
    </g>
  </g>
</svg>
